<svg id="visual" viewBox="0 0 900 600" width="900" height="600" xmlns="http://www.w3.org/2000/svg" xmlns:xlink="http://www.w3.org/1999/xlink" version="1.1"><g stroke-width="1" stroke-linejoin="bevel"><path d="M501.9 324L486.9 400L542.7 355Z" fill="#612663" stroke="#612663"></path><path d="M542.7 355L567.7 271L501.9 324Z" fill="#7f2164" stroke="#7f2164"></path><path d="M393.1 313L388.1 362L501.9 324Z" fill="#00101c" stroke="#00101c"></path><path d="M501.9 324L388.1 362L486.9 400Z" fill="#142040" stroke="#142040"></path><path d="M388.1 362L401.1 428L486.9 400Z" fill="#142040" stroke="#142040"></path><path d="M461.9 191L393.1 313L501.9 324Z" fill="#cb1847" stroke="#cb1847"></path><path d="M401.1 428L454.9 476L486.9 400Z" fill="#9b1960" stroke="#9b1960"></path><path d="M486.9 400L582.7 487L542.7 355Z" fill="#06192e" stroke="#06192e"></path><path d="M454.9 476L582.7 487L486.9 400Z" fill="#b51256" stroke="#b51256"></path><path d="M542.7 355L631.5 265L567.7 271Z" fill="#9b1960" stroke="#9b1960"></path><path d="M668.5 386L631.5 265L542.7 355Z" fill="#cb1847" stroke="#cb1847"></path><path d="M582.7 487L668.5 386L542.7 355Z" fill="#b51256" stroke="#b51256"></path><path d="M332.3 384L349.3 426L388.1 362Z" fill="#06192e" stroke="#06192e"></path><path d="M388.1 362L349.3 426L401.1 428Z" fill="#00101c" stroke="#00101c"></path><path d="M337.3 556L447.1 547L454.9 476Z" fill="#cb1847" stroke="#cb1847"></path><path d="M393.1 313L332.3 384L388.1 362Z" fill="#9b1960" stroke="#9b1960"></path><path d="M454.9 476L581.7 522L582.7 487Z" fill="#cb1847" stroke="#cb1847"></path><path d="M582.7 487L651.5 486L668.5 386Z" fill="#44275c" stroke="#44275c"></path><path d="M579.7 201L461.9 191L567.7 271Z" fill="#7f2164" stroke="#7f2164"></path><path d="M567.7 271L461.9 191L501.9 324Z" fill="#44275c" stroke="#44275c"></path><path d="M393.1 313L319.3 271L332.3 384Z" fill="#9b1960" stroke="#9b1960"></path><path d="M631.5 265L579.7 201L567.7 271Z" fill="#06192e" stroke="#06192e"></path><path d="M461.9 191L375.1 223L393.1 313Z" fill="#00101c" stroke="#00101c"></path><path d="M581.7 522L651.5 486L582.7 487Z" fill="#44275c" stroke="#44275c"></path><path d="M337.3 556L454.9 476L401.1 428Z" fill="#44275c" stroke="#44275c"></path><path d="M454.9 476L466.9 556L581.7 522Z" fill="#7f2164" stroke="#7f2164"></path><path d="M447.1 547L466.9 556L454.9 476Z" fill="#142040" stroke="#142040"></path><path d="M579.7 201L479.9 169L461.9 191Z" fill="#9b1960" stroke="#9b1960"></path><path d="M381.1 125L325.3 192L375.1 223Z" fill="#cb1847" stroke="#cb1847"></path><path d="M375.1 223L319.3 271L393.1 313Z" fill="#db2c33" stroke="#db2c33"></path><path d="M745.4 334L664.5 219L631.5 265Z" fill="#44275c" stroke="#44275c"></path><path d="M631.5 265L664.5 219L579.7 201Z" fill="#7f2164" stroke="#7f2164"></path><path d="M579.7 201L572.7 146L479.9 169Z" fill="#b51256" stroke="#b51256"></path><path d="M651.5 486L718.4 413L668.5 386Z" fill="#06192e" stroke="#06192e"></path><path d="M668.5 386L733.4 353L631.5 265Z" fill="#612663" stroke="#612663"></path><path d="M632.5 600L641.5 540L581.7 522Z" fill="#cb1847" stroke="#cb1847"></path><path d="M581.7 522L641.5 540L651.5 486Z" fill="#9b1960" stroke="#9b1960"></path><path d="M651.5 486L725.4 540L718.4 413Z" fill="#44275c" stroke="#44275c"></path><path d="M664.5 219L630.5 177L579.7 201Z" fill="#00101c" stroke="#00101c"></path><path d="M630.5 177L572.7 146L579.7 201Z" fill="#06192e" stroke="#06192e"></path><path d="M718.4 413L733.4 353L668.5 386Z" fill="#7f2164" stroke="#7f2164"></path><path d="M440.1 600L471.9 600L466.9 556Z" fill="#7f2164" stroke="#7f2164"></path><path d="M466.9 556L537.7 600L581.7 522Z" fill="#9b1960" stroke="#9b1960"></path><path d="M440.1 600L466.9 556L447.1 547Z" fill="#142040" stroke="#142040"></path><path d="M471.9 600L537.7 600L466.9 556Z" fill="#b51256" stroke="#b51256"></path><path d="M823.2 404L745.4 334L733.4 353Z" fill="#cb1847" stroke="#cb1847"></path><path d="M733.4 353L745.4 334L631.5 265Z" fill="#06192e" stroke="#06192e"></path><path d="M337.3 556L440.1 600L447.1 547Z" fill="#142040" stroke="#142040"></path><path d="M381.1 125L375.1 223L461.9 191Z" fill="#b51256" stroke="#b51256"></path><path d="M375.1 223L325.3 192L319.3 271Z" fill="#cb1847" stroke="#cb1847"></path><path d="M381.1 125L461.9 191L479.9 169Z" fill="#2a2550" stroke="#2a2550"></path><path d="M238.5 428L337.3 556L349.3 426Z" fill="#06192e" stroke="#06192e"></path><path d="M349.3 426L337.3 556L401.1 428Z" fill="#db2c33" stroke="#db2c33"></path><path d="M238.5 428L349.3 426L332.3 384Z" fill="#2a2550" stroke="#2a2550"></path><path d="M237.5 187L246.5 290L319.3 271Z" fill="#7f2164" stroke="#7f2164"></path><path d="M319.3 271L246.5 290L332.3 384Z" fill="#142040" stroke="#142040"></path><path d="M422.1 75L381.1 125L479.9 169Z" fill="#142040" stroke="#142040"></path><path d="M537.7 600L632.5 600L581.7 522Z" fill="#06192e" stroke="#06192e"></path><path d="M641.5 540L725.4 540L651.5 486Z" fill="#db2c33" stroke="#db2c33"></path><path d="M209.5 337L238.5 428L332.3 384Z" fill="#9b1960" stroke="#9b1960"></path><path d="M615.5 97L585.7 103L572.7 146Z" fill="#2a2550" stroke="#2a2550"></path><path d="M572.7 146L519.9 87L479.9 169Z" fill="#00101c" stroke="#00101c"></path><path d="M615.5 97L572.7 146L630.5 177Z" fill="#db2c33" stroke="#db2c33"></path><path d="M741.4 137L630.5 177L664.5 219Z" fill="#7f2164" stroke="#7f2164"></path><path d="M585.7 103L519.9 87L572.7 146Z" fill="#db2c33" stroke="#db2c33"></path><path d="M745.4 334L741.4 218L664.5 219Z" fill="#7f2164" stroke="#7f2164"></path><path d="M717.4 600L725.4 540L641.5 540Z" fill="#612663" stroke="#612663"></path><path d="M718.4 413L823.2 404L733.4 353Z" fill="#06192e" stroke="#06192e"></path><path d="M381.1 125L300.3 161L325.3 192Z" fill="#cb1847" stroke="#cb1847"></path><path d="M325.3 192L237.5 187L319.3 271Z" fill="#9b1960" stroke="#9b1960"></path><path d="M741.4 137L615.5 97L630.5 177Z" fill="#db2c33" stroke="#db2c33"></path><path d="M591.7 0L493.9 0L519.9 87Z" fill="#2a2550" stroke="#2a2550"></path><path d="M266.5 563L334.3 600L337.3 556Z" fill="#44275c" stroke="#44275c"></path><path d="M337.3 556L334.3 600L440.1 600Z" fill="#00101c" stroke="#00101c"></path><path d="M199.6 292L209.5 337L246.5 290Z" fill="#cb1847" stroke="#cb1847"></path><path d="M246.5 290L209.5 337L332.3 384Z" fill="#44275c" stroke="#44275c"></path><path d="M493.9 0L422.1 75L519.9 87Z" fill="#db2c33" stroke="#db2c33"></path><path d="M519.9 87L422.1 75L479.9 169Z" fill="#06192e" stroke="#06192e"></path><path d="M381.1 125L318.3 37L300.3 161Z" fill="#44275c" stroke="#44275c"></path><path d="M238.5 428L266.5 563L337.3 556Z" fill="#9b1960" stroke="#9b1960"></path><path d="M200.6 494L266.5 563L238.5 428Z" fill="#44275c" stroke="#44275c"></path><path d="M778.2 600L779.2 507L725.4 540Z" fill="#9b1960" stroke="#9b1960"></path><path d="M725.4 540L779.2 507L718.4 413Z" fill="#cb1847" stroke="#cb1847"></path><path d="M745.4 334L821.2 253L741.4 218Z" fill="#142040" stroke="#142040"></path><path d="M232.5 189L199.6 292L246.5 290Z" fill="#2a2550" stroke="#2a2550"></path><path d="M632.5 600L717.4 600L641.5 540Z" fill="#9b1960" stroke="#9b1960"></path><path d="M231.5 74L237.5 187L300.3 161Z" fill="#2a2550" stroke="#2a2550"></path><path d="M300.3 161L237.5 187L325.3 192Z" fill="#44275c" stroke="#44275c"></path><path d="M779.2 507L823.2 404L718.4 413Z" fill="#db2c33" stroke="#db2c33"></path><path d="M167.6 202L232.5 189L157.6 148Z" fill="#db2c33" stroke="#db2c33"></path><path d="M237.5 187L232.5 189L246.5 290Z" fill="#b51256" stroke="#b51256"></path><path d="M823.2 404L824.2 296L745.4 334Z" fill="#06192e" stroke="#06192e"></path><path d="M741.4 218L741.4 137L664.5 219Z" fill="#00101c" stroke="#00101c"></path><path d="M799.2 113L741.4 137L741.4 218Z" fill="#7f2164" stroke="#7f2164"></path><path d="M150.6 411L238.5 428L209.5 337Z" fill="#2a2550" stroke="#2a2550"></path><path d="M150.6 411L200.6 494L238.5 428Z" fill="#2a2550" stroke="#2a2550"></path><path d="M57.8 260L169.6 345L199.6 292Z" fill="#06192e" stroke="#06192e"></path><path d="M199.6 292L169.6 345L209.5 337Z" fill="#b51256" stroke="#b51256"></path><path d="M824.2 296L821.2 253L745.4 334Z" fill="#142040" stroke="#142040"></path><path d="M823.2 404L855.2 413L824.2 296Z" fill="#b51256" stroke="#b51256"></path><path d="M824.2 296L900 296L821.2 253Z" fill="#db2c33" stroke="#db2c33"></path><path d="M779.2 507L855.2 413L823.2 404Z" fill="#00101c" stroke="#00101c"></path><path d="M900 403L855.2 413L900 475Z" fill="#142040" stroke="#142040"></path><path d="M169.6 345L150.6 411L209.5 337Z" fill="#612663" stroke="#612663"></path><path d="M200.6 494L231.5 600L266.5 563Z" fill="#142040" stroke="#142040"></path><path d="M266.5 563L231.5 600L334.3 600Z" fill="#06192e" stroke="#06192e"></path><path d="M157.6 600L231.5 600L200.6 494Z" fill="#7f2164" stroke="#7f2164"></path><path d="M717.4 600L778.2 600L725.4 540Z" fill="#9b1960" stroke="#9b1960"></path><path d="M591.7 0L519.9 87L585.7 103Z" fill="#9b1960" stroke="#9b1960"></path><path d="M422.1 75L318.3 37L381.1 125Z" fill="#2a2550" stroke="#2a2550"></path><path d="M591.7 0L585.7 103L615.5 97Z" fill="#2a2550" stroke="#2a2550"></path><path d="M493.9 0L427.1 0L422.1 75Z" fill="#7f2164" stroke="#7f2164"></path><path d="M232.5 189L167.6 202L199.6 292Z" fill="#2a2550" stroke="#2a2550"></path><path d="M50.8 414L84.8 434L150.6 411Z" fill="#2a2550" stroke="#2a2550"></path><path d="M157.6 148L232.5 189L237.5 187Z" fill="#612663" stroke="#612663"></path><path d="M653.5 0L591.7 0L615.5 97Z" fill="#b51256" stroke="#b51256"></path><path d="M427.1 0L318.3 37L422.1 75Z" fill="#612663" stroke="#612663"></path><path d="M821.2 253L799.2 113L741.4 218Z" fill="#cb1847" stroke="#cb1847"></path><path d="M710.4 0L653.5 0L615.5 97Z" fill="#612663" stroke="#612663"></path><path d="M900 183L799.2 113L821.2 253Z" fill="#db2c33" stroke="#db2c33"></path><path d="M762.4 55L615.5 97L741.4 137Z" fill="#9b1960" stroke="#9b1960"></path><path d="M318.3 37L231.5 74L300.3 161Z" fill="#00101c" stroke="#00101c"></path><path d="M900 475L855.2 413L779.2 507Z" fill="#06192e" stroke="#06192e"></path><path d="M855.2 413L900 296L824.2 296Z" fill="#9b1960" stroke="#9b1960"></path><path d="M900 403L900 296L855.2 413Z" fill="#7f2164" stroke="#7f2164"></path><path d="M799.2 113L762.4 55L741.4 137Z" fill="#b51256" stroke="#b51256"></path><path d="M231.5 74L157.6 148L237.5 187Z" fill="#44275c" stroke="#44275c"></path><path d="M50.8 414L150.6 411L169.6 345Z" fill="#00101c" stroke="#00101c"></path><path d="M900 537L900 475L779.2 507Z" fill="#9b1960" stroke="#9b1960"></path><path d="M900 58L798.2 74L799.2 113Z" fill="#06192e" stroke="#06192e"></path><path d="M799.2 113L798.2 74L762.4 55Z" fill="#2a2550" stroke="#2a2550"></path><path d="M318.3 37L298.3 0L231.5 74Z" fill="#7f2164" stroke="#7f2164"></path><path d="M231.5 74L134.6 82L157.6 148Z" fill="#2a2550" stroke="#2a2550"></path><path d="M427.1 0L298.3 0L318.3 37Z" fill="#2a2550" stroke="#2a2550"></path><path d="M762.4 55L710.4 0L615.5 97Z" fill="#7f2164" stroke="#7f2164"></path><path d="M854.2 0L710.4 0L762.4 55Z" fill="#06192e" stroke="#06192e"></path><path d="M104.8 600L157.6 600L200.6 494Z" fill="#9b1960" stroke="#9b1960"></path><path d="M50.8 414L169.6 345L57.8 260Z" fill="#06192e" stroke="#06192e"></path><path d="M150.6 411L84.8 434L200.6 494Z" fill="#2a2550" stroke="#2a2550"></path><path d="M900 296L900 193L821.2 253Z" fill="#cb1847" stroke="#cb1847"></path><path d="M778.2 600L900 537L779.2 507Z" fill="#612663" stroke="#612663"></path><path d="M900 193L900 183L821.2 253Z" fill="#7f2164" stroke="#7f2164"></path><path d="M298.3 0L237.5 0L231.5 74Z" fill="#44275c" stroke="#44275c"></path><path d="M57.8 260L199.6 292L167.6 202Z" fill="#b51256" stroke="#b51256"></path><path d="M45.8 486L104.8 600L200.6 494Z" fill="#44275c" stroke="#44275c"></path><path d="M68.8 112L57.8 260L157.6 148Z" fill="#2a2550" stroke="#2a2550"></path><path d="M157.6 148L57.8 260L167.6 202Z" fill="#db2c33" stroke="#db2c33"></path><path d="M778.2 600L900 600L900 537Z" fill="#06192e" stroke="#06192e"></path><path d="M45.8 486L200.6 494L84.8 434Z" fill="#142040" stroke="#142040"></path><path d="M178.6 0L134.6 82L231.5 74Z" fill="#7f2164" stroke="#7f2164"></path><path d="M0 186L50.8 261L57.8 260Z" fill="#00101c" stroke="#00101c"></path><path d="M57.8 260L0 325L50.8 414Z" fill="#44275c" stroke="#44275c"></path><path d="M0 416L45.8 486L50.8 414Z" fill="#00101c" stroke="#00101c"></path><path d="M50.8 414L45.8 486L84.8 434Z" fill="#612663" stroke="#612663"></path><path d="M237.5 0L178.6 0L231.5 74Z" fill="#06192e" stroke="#06192e"></path><path d="M900 183L900 58L799.2 113Z" fill="#44275c" stroke="#44275c"></path><path d="M798.2 74L854.2 0L762.4 55Z" fill="#612663" stroke="#612663"></path><path d="M92.8 0L68.8 112L134.6 82Z" fill="#44275c" stroke="#44275c"></path><path d="M134.6 82L68.8 112L157.6 148Z" fill="#cb1847" stroke="#cb1847"></path><path d="M900 58L854.2 0L798.2 74Z" fill="#142040" stroke="#142040"></path><path d="M0 186L0 325L50.8 261Z" fill="#b51256" stroke="#b51256"></path><path d="M50.8 261L0 325L57.8 260Z" fill="#06192e" stroke="#06192e"></path><path d="M0 325L0 414L50.8 414Z" fill="#44275c" stroke="#44275c"></path><path d="M45.8 486L0 523L104.8 600Z" fill="#44275c" stroke="#44275c"></path><path d="M0 414L0 416L50.8 414Z" fill="#db2c33" stroke="#db2c33"></path><path d="M68.8 112L43.8 121L57.8 260Z" fill="#b51256" stroke="#b51256"></path><path d="M0 84L43.8 121L68.8 112Z" fill="#44275c" stroke="#44275c"></path><path d="M0 416L0 523L45.8 486Z" fill="#cb1847" stroke="#cb1847"></path><path d="M43.8 121L0 186L57.8 260Z" fill="#2a2550" stroke="#2a2550"></path><path d="M900 58L900 0L854.2 0Z" fill="#142040" stroke="#142040"></path><path d="M178.6 0L92.8 0L134.6 82Z" fill="#2a2550" stroke="#2a2550"></path><path d="M43.8 121L0 125L0 186Z" fill="#06192e" stroke="#06192e"></path><path d="M0 523L0 600L104.8 600Z" fill="#00101c" stroke="#00101c"></path><path d="M0 84L0 125L43.8 121Z" fill="#142040" stroke="#142040"></path><path d="M92.8 0L0 84L68.8 112Z" fill="#7f2164" stroke="#7f2164"></path><path d="M92.8 0L0 0L0 84Z" fill="#9b1960" stroke="#9b1960"></path></g></svg>